<svg width="21" height="20" viewBox="0 0 21 20" fill="none" xmlns="http://www.w3.org/2000/svg">
<path d="M16.2559 0C17.2888 0 18.1721 0.366753 18.9056 1.10026C19.6391 1.83377 20.0059 2.71701 20.0059 3.75V16.25C20.0059 17.283 19.6391 18.1662 18.9056 18.8997C18.1721 19.6332 17.2888 20 16.2559 20H13.8079V12.2526H16.3991L16.7897 9.23177H13.8079V7.30469C13.8079 6.81858 13.9099 6.45399 14.1139 6.21094C14.3179 5.96788 14.7151 5.84635 15.3053 5.84635L16.8939 5.83333V3.13802C16.347 3.0599 15.5744 3.02083 14.5762 3.02083C13.3956 3.02083 12.4516 3.36806 11.7441 4.0625C11.0367 4.75694 10.6829 5.73785 10.6829 7.00521V9.23177H8.07878V12.2526H10.6829V20H3.75586C2.72287 20 1.83963 19.6332 1.10612 18.8997C0.372613 18.1662 0.00585938 17.283 0.00585938 16.25V3.75C0.00585938 2.71701 0.372613 1.83377 1.10612 1.10026C1.83963 0.366753 2.72287 0 3.75586 0H16.2559Z" fill="white"/>
</svg>
