<svg width="21" height="20" viewBox="0 0 21 20" fill="none" xmlns="http://www.w3.org/2000/svg">
<path d="M12.0769 10.2174C12.0769 9.13518 11.1924 8.2546 10.1053 8.2546C9.0183 8.2546 8.13383 9.1352 8.13383 10.2174C8.13383 11.2998 9.0183 12.1802 10.1053 12.1802C11.1924 12.1802 12.0769 11.2998 12.0769 10.2174ZM15.0061 0H4.99975C2.24288 0 0 2.23313 0 4.97794V6.36494H7.35713C8.13345 5.81435 9.08157 5.4891 10.1053 5.4891C11.129 5.4891 12.0773 5.81435 12.8536 6.36494H20.0058V4.97794C20.0058 2.23311 17.7629 0 15.0061 0ZM17.0309 4.73441C17.0309 5.0386 16.781 5.28752 16.4754 5.28752H14.7589C14.4533 5.28752 14.2034 5.0386 14.2034 4.73441V3.02531C14.2034 2.72114 14.4533 2.4722 14.7589 2.4722H16.4754C16.781 2.4722 17.0309 2.7211 17.0309 3.02531V4.73441ZM14.8545 10.2174C14.8545 12.8248 12.7239 14.9457 10.1053 14.9457C7.48657 14.9457 5.35616 12.8248 5.35616 10.2174C5.35616 9.49954 5.51856 8.81878 5.80734 8.20858H0V15.0221C0 17.7671 2.24288 20 4.99975 20H15.0061C17.7629 20 20.0058 17.767 20.0058 15.0221V8.20858H14.4034C14.6921 8.81878 14.8545 9.49954 14.8545 10.2174Z" fill="white"/>
</svg>
